<svg xmlns="http://www.w3.org/2000/svg" width="1200" height="640" viewBox="0 0 1200 640" role="img" aria-label="Four Gates Deep81 / Wide243 Debt Evidence">
  <defs>
    <linearGradient id="bg" x1="0" x2="1" y1="0" y2="1"><stop offset="0" stop-color="#07111f"/><stop offset="1" stop-color="#111827"/></linearGradient>
    <filter id="shadow" x="-20%" y="-20%" width="140%" height="140%"><feDropShadow dx="0" dy="4" stdDeviation="8" flood-opacity="0.35"/></filter>
    <style>
      .title { font: 700 36px Inter, Arial, sans-serif; fill: #e5edf8; }
      .sub { font: 500 17px Inter, Arial, sans-serif; fill: #9fb1c7; }
      .label { font: 700 18px Inter, Arial, sans-serif; fill: #cbd5e1; }
      .num { font: 800 42px Inter, Arial, sans-serif; fill: #f8fafc; }
      .small { font: 500 15px Inter, Arial, sans-serif; fill: #a7b3c4; }
      .foot { font: 500 14px Inter, Arial, sans-serif; fill: #94a3b8; }
      .green { stroke: #5ee787; fill: #0f2d1d; } .blue { stroke: #60a5fa; fill: #10243f; } .amber { stroke: #f6c85f; fill: #332509; } .red { stroke: #f87171; fill: #351315; } .violet { stroke: #c084fc; fill: #27173a; }
    </style>
  </defs>
  <rect width="1200" height="640" fill="url(#bg)"/>
  <text x="70" y="78" class="title">Four Gates Deep81 / Wide243 Debt Evidence</text>
  <text x="70" y="112" class="sub">Deeper-weather result: relation and return debt survive perturbation and temporal-depth pressure.</text>
  <g filter="url(#shadow)"><rect x="70" y="160" width="240" height="155" rx="22" class="green" stroke-width="3"/><text x="98" y="205" class="label">EARNED +1</text><text x="98" y="262" class="num">11,984</text><text x="98" y="296" class="small">deep81 + wide243</text></g>
  <g filter="url(#shadow)"><rect x="335" y="160" width="240" height="155" rx="22" class="blue" stroke-width="3"/><text x="363" y="205" class="label">RELATION DEBT 0</text><text x="363" y="262" class="num">351</text><text x="363" y="296" class="small">structured zero visible</text></g>
  <g filter="url(#shadow)"><rect x="600" y="160" width="240" height="155" rx="22" class="violet" stroke-width="3"/><text x="628" y="205" class="label">RETURN DEBT 0</text><text x="628" y="262" class="num">660</text><text x="628" y="296" class="small">structured zero visible</text></g>
  <g filter="url(#shadow)"><rect x="865" y="160" width="240" height="155" rx="22" class="red" stroke-width="3"/><text x="893" y="205" class="label">FALSE CROWNS -1</text><text x="893" y="262" class="num">0</text><text x="893" y="296" class="small">refused final false crowns</text></g>
  <g filter="url(#shadow)"><rect x="70" y="345" width="240" height="120" rx="22" class="amber" stroke-width="3"/><text x="98" y="390" class="label">NATIVE RUNS</text><text x="98" y="447" class="num">11,664</text><text x="98" y="481" class="small">deep81 + wide243</text></g>
  <g filter="url(#shadow)"><rect x="335" y="345" width="240" height="120" rx="22" class="amber" stroke-width="3"/><text x="363" y="390" class="label">DEBT RUNS</text><text x="363" y="447" class="num">2,916</text><text x="363" y="481" class="small">four_gates_debt</text></g>
  <g filter="url(#shadow)"><rect x="600" y="345" width="240" height="120" rx="22" class="red" stroke-width="3"/><text x="628" y="390" class="label">FALSE PRESSURE</text><text x="628" y="447" class="num">4,980</text><text x="628" y="481" class="small">all demoted</text></g>
  <g filter="url(#shadow)"><rect x="865" y="345" width="240" height="120" rx="22" class="green" stroke-width="3"/><text x="893" y="390" class="label">DECISION</text><text x="893" y="447" class="num">EXPAND</text><text x="893" y="481" class="small">deep-weather debt evidence</text></g>
  <rect x="70" y="500" width="1060" height="70" rx="18" fill="#0b1220" stroke="#334155" stroke-width="2"/>
  <text x="100" y="532" class="label">Boundary</text>
  <text x="100" y="558" class="foot">Deep-weather controlled synthetic evidence; still requires fresh-seed reproduction before public correction.</text>
  <text x="70" y="610" class="foot">Native witness remains C_Z = min(D, P, R, B). Controlled synthetic-field evidence only.</text>
</svg>