<svg xmlns="http://www.w3.org/2000/svg" width="1700" height="1050" viewBox="0 0 1700 1050" role="img">
<defs>
    <linearGradient id="bg" x1="0" x2="1" y1="0" y2="1"><stop offset="0%" stop-color="#07111f"/><stop offset="62%" stop-color="#0d1117"/><stop offset="100%" stop-color="#150f22"/></linearGradient>
    <filter id="shadow" x="-20%" y="-20%" width="140%" height="140%"><feDropShadow dx="0" dy="8" stdDeviation="9" flood-color="#000" flood-opacity="0.35"/></filter>
    </defs>
<rect width="1700" height="1050" fill="url(#bg)"/>
<line x1="0" y1="0" x2="0" y2="1050" stroke="#27364a" stroke-opacity="0.16"/>
<line x1="96" y1="0" x2="96" y2="1050" stroke="#27364a" stroke-opacity="0.16"/>
<line x1="192" y1="0" x2="192" y2="1050" stroke="#27364a" stroke-opacity="0.16"/>
<line x1="288" y1="0" x2="288" y2="1050" stroke="#27364a" stroke-opacity="0.16"/>
<line x1="384" y1="0" x2="384" y2="1050" stroke="#27364a" stroke-opacity="0.16"/>
<line x1="480" y1="0" x2="480" y2="1050" stroke="#27364a" stroke-opacity="0.16"/>
<line x1="576" y1="0" x2="576" y2="1050" stroke="#27364a" stroke-opacity="0.16"/>
<line x1="672" y1="0" x2="672" y2="1050" stroke="#27364a" stroke-opacity="0.16"/>
<line x1="768" y1="0" x2="768" y2="1050" stroke="#27364a" stroke-opacity="0.16"/>
<line x1="864" y1="0" x2="864" y2="1050" stroke="#27364a" stroke-opacity="0.16"/>
<line x1="960" y1="0" x2="960" y2="1050" stroke="#27364a" stroke-opacity="0.16"/>
<line x1="1056" y1="0" x2="1056" y2="1050" stroke="#27364a" stroke-opacity="0.16"/>
<line x1="1152" y1="0" x2="1152" y2="1050" stroke="#27364a" stroke-opacity="0.16"/>
<line x1="1248" y1="0" x2="1248" y2="1050" stroke="#27364a" stroke-opacity="0.16"/>
<line x1="1344" y1="0" x2="1344" y2="1050" stroke="#27364a" stroke-opacity="0.16"/>
<line x1="1440" y1="0" x2="1440" y2="1050" stroke="#27364a" stroke-opacity="0.16"/>
<line x1="1536" y1="0" x2="1536" y2="1050" stroke="#27364a" stroke-opacity="0.16"/>
<line x1="1632" y1="0" x2="1632" y2="1050" stroke="#27364a" stroke-opacity="0.16"/>
<line x1="0" y1="0" x2="1700" y2="0" stroke="#27364a" stroke-opacity="0.16"/>
<line x1="0" y1="96" x2="1700" y2="96" stroke="#27364a" stroke-opacity="0.16"/>
<line x1="0" y1="192" x2="1700" y2="192" stroke="#27364a" stroke-opacity="0.16"/>
<line x1="0" y1="288" x2="1700" y2="288" stroke="#27364a" stroke-opacity="0.16"/>
<line x1="0" y1="384" x2="1700" y2="384" stroke="#27364a" stroke-opacity="0.16"/>
<line x1="0" y1="480" x2="1700" y2="480" stroke="#27364a" stroke-opacity="0.16"/>
<line x1="0" y1="576" x2="1700" y2="576" stroke="#27364a" stroke-opacity="0.16"/>
<line x1="0" y1="672" x2="1700" y2="672" stroke="#27364a" stroke-opacity="0.16"/>
<line x1="0" y1="768" x2="1700" y2="768" stroke="#27364a" stroke-opacity="0.16"/>
<line x1="0" y1="864" x2="1700" y2="864" stroke="#27364a" stroke-opacity="0.16"/>
<line x1="0" y1="960" x2="1700" y2="960" stroke="#27364a" stroke-opacity="0.16"/>
<text x="70" y="70" fill="#f0f6fc" font-family="Inter, Segoe UI, Arial, sans-serif" font-size="42" font-weight="800" text-anchor="start">ZeroGateSim Fresh deep81 Evidence Card</text>
<text x="72" y="112" fill="#a8b9d0" font-family="Inter, Segoe UI, Arial, sans-serif" font-size="20" font-weight="500" text-anchor="start">Perturbation / late-shock bridge · seeds 18–26 · 2,916 controlled runs</text>
<rect x="100" y="180" width="440" height="290" rx="34" fill="#122b1a" stroke="#7ee787" stroke-width="4" filter="url(#shadow)"/>
<text x="320" y="238" fill="#7ee787" font-family="Inter, Segoe UI, Arial, sans-serif" font-size="29" font-weight="900" text-anchor="middle">EXPAND +1</text>
<text x="320" y="338" fill="#f0f6fc" font-family="Inter, Segoe UI, Arial, sans-serif" font-size="66" font-weight="900" text-anchor="middle">5,155</text>
<text x="320" y="395" fill="#d6e4ff" font-family="Inter, Segoe UI, Arial, sans-serif" font-size="22" font-weight="800" text-anchor="middle">final earned-one events</text>
<rect x="630" y="180" width="440" height="290" rx="34" fill="#0e2039" stroke="#79c0ff" stroke-width="4" filter="url(#shadow)"/>
<text x="850" y="238" fill="#79c0ff" font-family="Inter, Segoe UI, Arial, sans-serif" font-size="29" font-weight="900" text-anchor="middle">WITNESS 0</text>
<text x="850" y="338" fill="#f0f6fc" font-family="Inter, Segoe UI, Arial, sans-serif" font-size="66" font-weight="900" text-anchor="middle">402</text>
<text x="850" y="395" fill="#d6e4ff" font-family="Inter, Segoe UI, Arial, sans-serif" font-size="22" font-weight="800" text-anchor="middle">raw false-one pressures demoted</text>
<rect x="1160" y="180" width="440" height="290" rx="34" fill="#2b1115" stroke="#ff7b72" stroke-width="4" filter="url(#shadow)"/>
<text x="1380" y="238" fill="#ff7b72" font-family="Inter, Segoe UI, Arial, sans-serif" font-size="29" font-weight="900" text-anchor="middle">RESIST −1</text>
<text x="1380" y="338" fill="#f0f6fc" font-family="Inter, Segoe UI, Arial, sans-serif" font-size="66" font-weight="900" text-anchor="middle">0</text>
<text x="1380" y="395" fill="#d6e4ff" font-family="Inter, Segoe UI, Arial, sans-serif" font-size="22" font-weight="800" text-anchor="middle">final false-one crowns</text>
<rect x="100" y="540" width="1500" height="275" rx="30" fill="#111827" stroke="#d6e4ff" stroke-width="3" filter="url(#shadow)"/>
<text x="850" y="592" fill="#f0f6fc" font-family="Inter, Segoe UI, Arial, sans-serif" font-size="31" font-weight="900" text-anchor="middle">Gate pressure concentration</text>
<rect x="230" y="758" width="210" height="2" rx="8" fill="#ff7b72" stroke="#ffb3ad" stroke-width="2"/>
<text x="335.0" y="796" fill="#d6e4ff" font-family="Inter, Segoe UI, Arial, sans-serif" font-size="21" font-weight="800" text-anchor="middle">distinction</text>
<text x="335.0" y="740" fill="#f0f6fc" font-family="Inter, Segoe UI, Arial, sans-serif" font-size="22" font-weight="900" text-anchor="middle">0</text>
<rect x="550" y="758" width="210" height="2" rx="8" fill="#ff7b72" stroke="#ffb3ad" stroke-width="2"/>
<text x="655.0" y="796" fill="#d6e4ff" font-family="Inter, Segoe UI, Arial, sans-serif" font-size="21" font-weight="800" text-anchor="middle">polarity</text>
<text x="655.0" y="740" fill="#f0f6fc" font-family="Inter, Segoe UI, Arial, sans-serif" font-size="22" font-weight="900" text-anchor="middle">3</text>
<rect x="870" y="640.0" width="210" height="120.0" rx="8" fill="#ff7b72" stroke="#ffb3ad" stroke-width="2"/>
<text x="975.0" y="796" fill="#d6e4ff" font-family="Inter, Segoe UI, Arial, sans-serif" font-size="21" font-weight="800" text-anchor="middle">relation</text>
<text x="975.0" y="622.0" fill="#f0f6fc" font-family="Inter, Segoe UI, Arial, sans-serif" font-size="22" font-weight="900" text-anchor="middle">396</text>
<rect x="1190" y="758" width="210" height="2" rx="8" fill="#ff7b72" stroke="#ffb3ad" stroke-width="2"/>
<text x="1295.0" y="796" fill="#d6e4ff" font-family="Inter, Segoe UI, Arial, sans-serif" font-size="21" font-weight="800" text-anchor="middle">return</text>
<text x="1295.0" y="740" fill="#f0f6fc" font-family="Inter, Segoe UI, Arial, sans-serif" font-size="22" font-weight="900" text-anchor="middle">3</text>
<rect x="155" y="850" width="1390" height="105" rx="26" fill="#0e2039" stroke="#79c0ff" stroke-width="3" filter="url(#shadow)"/>
<text x="850" y="890" fill="#f0f6fc" font-family="Inter, Segoe UI, Arial, sans-serif" font-size="26" font-weight="900" text-anchor="middle">2,916 runs · 639 latent holds · relation wound 396 · false crowns 0</text>
<text x="850" y="925" fill="#d6e4ff" font-family="Inter, Segoe UI, Arial, sans-serif" font-size="21" font-weight="600" text-anchor="middle">relation held the main false-one wound under perturbation pressure</text>
<text x="850" y="1018" fill="#8b949e" font-family="Inter, Segoe UI, Arial, sans-serif" font-size="16" font-weight="500" text-anchor="middle">Controlled synthetic-field evidence, not physics proof. Native C_Z = min(D, P, R, B) remains unchanged.</text>
</svg>