<svg xmlns="http://www.w3.org/2000/svg" width="1920" height="1120" viewBox="0 0 1920 1120" role="img">
<defs>
        <linearGradient id="bg" x1="0" x2="1" y1="0" y2="1">
          <stop offset="0%" stop-color="#07111f"/><stop offset="62%" stop-color="#0d1117"/><stop offset="100%" stop-color="#150f22"/>
        </linearGradient>
        <filter id="shadow" x="-20%" y="-20%" width="140%" height="140%"><feDropShadow dx="0" dy="8" stdDeviation="9" flood-color="#000" flood-opacity="0.35"/></filter>
        <marker id="arrow" viewBox="0 0 10 10" refX="9" refY="5" markerWidth="9" markerHeight="9" orient="auto-start-reverse"><path d="M0,0 L10,5 L0,10 z" fill="#d6e4ff"/></marker>
        <marker id="arrowBlue" viewBox="0 0 10 10" refX="9" refY="5" markerWidth="9" markerHeight="9" orient="auto-start-reverse"><path d="M0,0 L10,5 L0,10 z" fill="#79c0ff"/></marker>
        <marker id="arrowGreen" viewBox="0 0 10 10" refX="9" refY="5" markerWidth="9" markerHeight="9" orient="auto-start-reverse"><path d="M0,0 L10,5 L0,10 z" fill="#7ee787"/></marker>
        <marker id="arrowRed" viewBox="0 0 10 10" refX="9" refY="5" markerWidth="9" markerHeight="9" orient="auto-start-reverse"><path d="M0,0 L10,5 L0,10 z" fill="#ff7b72"/></marker>
        <marker id="arrowGold" viewBox="0 0 10 10" refX="9" refY="5" markerWidth="9" markerHeight="9" orient="auto-start-reverse"><path d="M0,0 L10,5 L0,10 z" fill="#f2cc60"/></marker>
        </defs>
<rect width="1920" height="1120" fill="url(#bg)"/>
<line x1="0" y1="0" x2="0" y2="1120" stroke="#27364a" stroke-opacity="0.16"/>
<line x1="96" y1="0" x2="96" y2="1120" stroke="#27364a" stroke-opacity="0.16"/>
<line x1="192" y1="0" x2="192" y2="1120" stroke="#27364a" stroke-opacity="0.16"/>
<line x1="288" y1="0" x2="288" y2="1120" stroke="#27364a" stroke-opacity="0.16"/>
<line x1="384" y1="0" x2="384" y2="1120" stroke="#27364a" stroke-opacity="0.16"/>
<line x1="480" y1="0" x2="480" y2="1120" stroke="#27364a" stroke-opacity="0.16"/>
<line x1="576" y1="0" x2="576" y2="1120" stroke="#27364a" stroke-opacity="0.16"/>
<line x1="672" y1="0" x2="672" y2="1120" stroke="#27364a" stroke-opacity="0.16"/>
<line x1="768" y1="0" x2="768" y2="1120" stroke="#27364a" stroke-opacity="0.16"/>
<line x1="864" y1="0" x2="864" y2="1120" stroke="#27364a" stroke-opacity="0.16"/>
<line x1="960" y1="0" x2="960" y2="1120" stroke="#27364a" stroke-opacity="0.16"/>
<line x1="1056" y1="0" x2="1056" y2="1120" stroke="#27364a" stroke-opacity="0.16"/>
<line x1="1152" y1="0" x2="1152" y2="1120" stroke="#27364a" stroke-opacity="0.16"/>
<line x1="1248" y1="0" x2="1248" y2="1120" stroke="#27364a" stroke-opacity="0.16"/>
<line x1="1344" y1="0" x2="1344" y2="1120" stroke="#27364a" stroke-opacity="0.16"/>
<line x1="1440" y1="0" x2="1440" y2="1120" stroke="#27364a" stroke-opacity="0.16"/>
<line x1="1536" y1="0" x2="1536" y2="1120" stroke="#27364a" stroke-opacity="0.16"/>
<line x1="1632" y1="0" x2="1632" y2="1120" stroke="#27364a" stroke-opacity="0.16"/>
<line x1="1728" y1="0" x2="1728" y2="1120" stroke="#27364a" stroke-opacity="0.16"/>
<line x1="1824" y1="0" x2="1824" y2="1120" stroke="#27364a" stroke-opacity="0.16"/>
<line x1="0" y1="0" x2="1920" y2="0" stroke="#27364a" stroke-opacity="0.16"/>
<line x1="0" y1="96" x2="1920" y2="96" stroke="#27364a" stroke-opacity="0.16"/>
<line x1="0" y1="192" x2="1920" y2="192" stroke="#27364a" stroke-opacity="0.16"/>
<line x1="0" y1="288" x2="1920" y2="288" stroke="#27364a" stroke-opacity="0.16"/>
<line x1="0" y1="384" x2="1920" y2="384" stroke="#27364a" stroke-opacity="0.16"/>
<line x1="0" y1="480" x2="1920" y2="480" stroke="#27364a" stroke-opacity="0.16"/>
<line x1="0" y1="576" x2="1920" y2="576" stroke="#27364a" stroke-opacity="0.16"/>
<line x1="0" y1="672" x2="1920" y2="672" stroke="#27364a" stroke-opacity="0.16"/>
<line x1="0" y1="768" x2="1920" y2="768" stroke="#27364a" stroke-opacity="0.16"/>
<line x1="0" y1="864" x2="1920" y2="864" stroke="#27364a" stroke-opacity="0.16"/>
<line x1="0" y1="960" x2="1920" y2="960" stroke="#27364a" stroke-opacity="0.16"/>
<line x1="0" y1="1056" x2="1920" y2="1056" stroke="#27364a" stroke-opacity="0.16"/>
<text x="70" y="70" fill="#f0f6fc" font-family="Inter, Segoe UI, Arial, sans-serif" font-size="42" font-weight="800" text-anchor="start">Trinary Adversarial Proof Harness</text>
<text x="72" y="112" fill="#a8b9d0" font-family="Inter, Segoe UI, Arial, sans-serif" font-size="20" font-weight="500" text-anchor="start">Test map: distinction, polarity, and relation each get their own false-one theater</text>
<rect x="70" y="185" width="410" height="160" rx="28" fill="#3a2411" fill-opacity="1" stroke="#ffa657" stroke-width="3" filter="url(#shadow)"/>
<text x="275" y="240" fill="#f0f6fc" font-family="Inter, Segoe UI, Arial, sans-serif" font-size="27" font-weight="900" text-anchor="middle">Distinction adversary</text>
<text x="115" y="285.0" fill="#ffa657" font-family="Inter, Segoe UI, Arial, sans-serif" font-size="19" font-weight="800" text-anchor="start">visibility / contrast</text>
<text x="115" y="308.75" fill="#ffa657" font-family="Inter, Segoe UI, Arial, sans-serif" font-size="19" font-weight="800" text-anchor="start">pretending to be real</text>
<rect x="70" y="415" width="410" height="160" rx="28" fill="#2a163e" fill-opacity="1" stroke="#d2a8ff" stroke-width="3" filter="url(#shadow)"/>
<text x="275" y="470" fill="#f0f6fc" font-family="Inter, Segoe UI, Arial, sans-serif" font-size="27" font-weight="900" text-anchor="middle">Polarity adversary</text>
<text x="115" y="515.0" fill="#d2a8ff" font-family="Inter, Segoe UI, Arial, sans-serif" font-size="19" font-weight="800" text-anchor="start">pulse / zero-crossing</text>
<text x="115" y="538.75" fill="#d2a8ff" font-family="Inter, Segoe UI, Arial, sans-serif" font-size="19" font-weight="800" text-anchor="start">pretending to be return</text>
<rect x="70" y="645" width="410" height="160" rx="28" fill="#12321d" fill-opacity="1" stroke="#7ee787" stroke-width="3" filter="url(#shadow)"/>
<text x="275" y="700" fill="#f0f6fc" font-family="Inter, Segoe UI, Arial, sans-serif" font-size="27" font-weight="900" text-anchor="middle">Relation adversary</text>
<text x="115" y="745.0" fill="#7ee787" font-family="Inter, Segoe UI, Arial, sans-serif" font-size="19" font-weight="800" text-anchor="start">borrowed coherence</text>
<text x="115" y="768.75" fill="#7ee787" font-family="Inter, Segoe UI, Arial, sans-serif" font-size="19" font-weight="800" text-anchor="start">pretending to be earned-one</text>
<rect x="610" y="265" width="340" height="240" rx="30" fill="#111827" fill-opacity="1" stroke="#79c0ff" stroke-width="3" filter="url(#shadow)"/>
<text x="780" y="325" fill="#79c0ff" font-family="Inter, Segoe UI, Arial, sans-serif" font-size="31" font-weight="900" text-anchor="middle">Wide243 weather</text>
<text x="780" y="380" fill="#f0f6fc" font-family="Inter, Segoe UI, Arial, sans-serif" font-size="36" font-weight="900" text-anchor="middle">3⁵ scenario cells</text>
<text x="660" y="435.0" fill="#d6e4ff" font-family="Inter, Segoe UI, Arial, sans-serif" font-size="18" font-weight="400" text-anchor="start">structured trinary weather, not</text>
<text x="660" y="457.5" fill="#d6e4ff" font-family="Inter, Segoe UI, Arial, sans-serif" font-size="18" font-weight="400" text-anchor="start">decimal confetti</text>
<rect x="1065" y="265" width="320" height="240" rx="30" fill="#111827" fill-opacity="1" stroke="#d2a8ff" stroke-width="3" filter="url(#shadow)"/>
<text x="1225" y="330" fill="#d2a8ff" font-family="Inter, Segoe UI, Arial, sans-serif" font-size="36" font-weight="900" text-anchor="middle">9 seeds</text>
<text x="1225" y="382" fill="#f0f6fc" font-family="Inter, Segoe UI, Arial, sans-serif" font-size="25" font-weight="800" text-anchor="middle">per proof record</text>
<text x="1110" y="435.0" fill="#d6e4ff" font-family="Inter, Segoe UI, Arial, sans-serif" font-size="18" font-weight="400" text-anchor="start">729 scenario cells × 9 = 6,561</text>
<text x="1110" y="457.5" fill="#d6e4ff" font-family="Inter, Segoe UI, Arial, sans-serif" font-size="18" font-weight="400" text-anchor="start">seeded runs</text>
<rect x="1500" y="265" width="330" height="240" rx="30" fill="#122b1a" fill-opacity="1" stroke="#7ee787" stroke-width="3" filter="url(#shadow)"/>
<text x="1665" y="330" fill="#7ee787" font-family="Inter, Segoe UI, Arial, sans-serif" font-size="32" font-weight="900" text-anchor="middle">Final witness</text>
<text x="1545" y="385.0" fill="#d6e4ff" font-family="Inter, Segoe UI, Arial, sans-serif" font-size="19" font-weight="400" text-anchor="start">raw pressure becomes +1 earned-</text>
<text x="1545" y="408.75" fill="#d6e4ff" font-family="Inter, Segoe UI, Arial, sans-serif" font-size="19" font-weight="400" text-anchor="start">one, 0 held, or −1 contained</text>
<path d="M480 265 C535 265 555 345 610 345" fill="none" stroke="#d6e4ff" stroke-width="3" stroke-linecap="round" stroke-linejoin="round" opacity="0.9" marker-end="url(#arrow)"/>
<path d="M480 495 C535 495 555 345 610 345" fill="none" stroke="#d6e4ff" stroke-width="3" stroke-linecap="round" stroke-linejoin="round" opacity="0.9" marker-end="url(#arrow)"/>
<path d="M480 725 C535 725 555 345 610 345" fill="none" stroke="#d6e4ff" stroke-width="3" stroke-linecap="round" stroke-linejoin="round" opacity="0.9" marker-end="url(#arrow)"/>
<line x1="950" y1="385" x2="1065" y2="385" stroke="#d6e4ff" stroke-width="4" stroke-linecap="round" opacity="1" marker-end="url(#arrow)"/>
<line x1="1385" y1="385" x2="1500" y2="385" stroke="#7ee787" stroke-width="4" stroke-linecap="round" opacity="1" marker-end="url(#arrowGreen)"/>
<rect x="610" y="640" width="545" height="165" rx="28" fill="#0e2039" fill-opacity="1" stroke="#79c0ff" stroke-width="3" filter="url(#shadow)"/>
<text x="882" y="692" fill="#79c0ff" font-family="Inter, Segoe UI, Arial, sans-serif" font-size="29" font-weight="900" text-anchor="middle">Original proof record</text>
<text x="882" y="742" fill="#f0f6fc" font-family="Inter, Segoe UI, Arial, sans-serif" font-size="24" font-weight="800" text-anchor="middle">seeds 0–8 · 6,561 runs</text>
<rect x="1255" y="640" width="545" height="165" rx="28" fill="#0e2039" fill-opacity="1" stroke="#79c0ff" stroke-width="3" filter="url(#shadow)"/>
<text x="1528" y="692" fill="#79c0ff" font-family="Inter, Segoe UI, Arial, sans-serif" font-size="29" font-weight="900" text-anchor="middle">Fresh-seed reproduction</text>
<text x="1528" y="742" fill="#f0f6fc" font-family="Inter, Segoe UI, Arial, sans-serif" font-size="24" font-weight="800" text-anchor="middle">seeds 9–17 · 6,561 runs</text>
<line x1="1665" y1="505" x2="1665" y2="640" stroke="#7ee787" stroke-width="4" stroke-linecap="round" opacity="1" marker-end="url(#arrowGreen)"/>
<path d="M882 640 C1020 580 1400 580 1528 640" fill="none" stroke="#79c0ff" stroke-width="3" stroke-linecap="round" stroke-linejoin="round" opacity="1" stroke-dasharray="9 9"/>
<rect x="210" y="850" width="1500" height="205" rx="32" fill="#0d1117" fill-opacity="1" stroke="#f2cc60" stroke-width="4" filter="url(#shadow)"/>
<text x="960" y="900" fill="#f2cc60" font-family="Inter, Segoe UI, Arial, sans-serif" font-size="31" font-weight="900" text-anchor="middle">First-research-alpha combined record</text>
<rect x="285" y="928" width="240" height="72" rx="18" fill="#111827" fill-opacity="1" stroke="#30363d" stroke-width="2"/>
<text x="405" y="956" fill="#f0f6fc" font-family="Inter, Segoe UI, Arial, sans-serif" font-size="31" font-weight="900" text-anchor="middle">13,122</text>
<text x="405" y="986" fill="#a8b9d0" font-family="Inter, Segoe UI, Arial, sans-serif" font-size="15" font-weight="700" text-anchor="middle">seeded runs</text>
<rect x="595" y="928" width="240" height="72" rx="18" fill="#111827" fill-opacity="1" stroke="#30363d" stroke-width="2"/>
<text x="715" y="956" fill="#f0f6fc" font-family="Inter, Segoe UI, Arial, sans-serif" font-size="31" font-weight="900" text-anchor="middle">22,131</text>
<text x="715" y="986" fill="#a8b9d0" font-family="Inter, Segoe UI, Arial, sans-serif" font-size="15" font-weight="700" text-anchor="middle">earned-one events</text>
<rect x="905" y="928" width="240" height="72" rx="18" fill="#111827" fill-opacity="1" stroke="#30363d" stroke-width="2"/>
<text x="1025" y="956" fill="#f0f6fc" font-family="Inter, Segoe UI, Arial, sans-serif" font-size="31" font-weight="900" text-anchor="middle">2,388</text>
<text x="1025" y="986" fill="#a8b9d0" font-family="Inter, Segoe UI, Arial, sans-serif" font-size="15" font-weight="700" text-anchor="middle">false-one pressures demoted</text>
<rect x="1215" y="928" width="240" height="72" rx="18" fill="#111827" fill-opacity="1" stroke="#30363d" stroke-width="2"/>
<text x="1335" y="956" fill="#f0f6fc" font-family="Inter, Segoe UI, Arial, sans-serif" font-size="31" font-weight="900" text-anchor="middle">0</text>
<text x="1335" y="986" fill="#a8b9d0" font-family="Inter, Segoe UI, Arial, sans-serif" font-size="15" font-weight="700" text-anchor="middle">final false-one crowns</text>
<text x="960" y="1030" fill="#d6e4ff" font-family="Inter, Segoe UI, Arial, sans-serif" font-size="17" font-weight="600" text-anchor="middle">Supported claim is software-theory only: earned-one witness separated final expression from raw pressure, latent overcrown, and false-one pressure inside generated toy fields.</text>
<text x="960.0" y="1088" fill="#8b949e" font-family="Inter, Segoe UI, Arial, sans-serif" font-size="16" font-weight="500" text-anchor="middle">Claim boundary: not proof of physical cosmology, real dimensions, or that reality itself is trinary.</text>
</svg>