<svg xmlns="http://www.w3.org/2000/svg" width="1900" height="1120" viewBox="0 0 1900 1120" role="img">
<defs>
        <linearGradient id="bg" x1="0" x2="1" y1="0" y2="1">
          <stop offset="0%" stop-color="#07111f"/><stop offset="62%" stop-color="#0d1117"/><stop offset="100%" stop-color="#150f22"/>
        </linearGradient>
        <filter id="shadow" x="-20%" y="-20%" width="140%" height="140%"><feDropShadow dx="0" dy="8" stdDeviation="9" flood-color="#000" flood-opacity="0.35"/></filter>
        <marker id="arrow" viewBox="0 0 10 10" refX="9" refY="5" markerWidth="9" markerHeight="9" orient="auto-start-reverse"><path d="M0,0 L10,5 L0,10 z" fill="#d6e4ff"/></marker>
        <marker id="arrowBlue" viewBox="0 0 10 10" refX="9" refY="5" markerWidth="9" markerHeight="9" orient="auto-start-reverse"><path d="M0,0 L10,5 L0,10 z" fill="#79c0ff"/></marker>
        <marker id="arrowGreen" viewBox="0 0 10 10" refX="9" refY="5" markerWidth="9" markerHeight="9" orient="auto-start-reverse"><path d="M0,0 L10,5 L0,10 z" fill="#7ee787"/></marker>
        <marker id="arrowRed" viewBox="0 0 10 10" refX="9" refY="5" markerWidth="9" markerHeight="9" orient="auto-start-reverse"><path d="M0,0 L10,5 L0,10 z" fill="#ff7b72"/></marker>
        <marker id="arrowGold" viewBox="0 0 10 10" refX="9" refY="5" markerWidth="9" markerHeight="9" orient="auto-start-reverse"><path d="M0,0 L10,5 L0,10 z" fill="#f2cc60"/></marker>
        </defs>
<rect width="1900" height="1120" fill="url(#bg)"/>
<line x1="0" y1="0" x2="0" y2="1120" stroke="#27364a" stroke-opacity="0.16"/>
<line x1="96" y1="0" x2="96" y2="1120" stroke="#27364a" stroke-opacity="0.16"/>
<line x1="192" y1="0" x2="192" y2="1120" stroke="#27364a" stroke-opacity="0.16"/>
<line x1="288" y1="0" x2="288" y2="1120" stroke="#27364a" stroke-opacity="0.16"/>
<line x1="384" y1="0" x2="384" y2="1120" stroke="#27364a" stroke-opacity="0.16"/>
<line x1="480" y1="0" x2="480" y2="1120" stroke="#27364a" stroke-opacity="0.16"/>
<line x1="576" y1="0" x2="576" y2="1120" stroke="#27364a" stroke-opacity="0.16"/>
<line x1="672" y1="0" x2="672" y2="1120" stroke="#27364a" stroke-opacity="0.16"/>
<line x1="768" y1="0" x2="768" y2="1120" stroke="#27364a" stroke-opacity="0.16"/>
<line x1="864" y1="0" x2="864" y2="1120" stroke="#27364a" stroke-opacity="0.16"/>
<line x1="960" y1="0" x2="960" y2="1120" stroke="#27364a" stroke-opacity="0.16"/>
<line x1="1056" y1="0" x2="1056" y2="1120" stroke="#27364a" stroke-opacity="0.16"/>
<line x1="1152" y1="0" x2="1152" y2="1120" stroke="#27364a" stroke-opacity="0.16"/>
<line x1="1248" y1="0" x2="1248" y2="1120" stroke="#27364a" stroke-opacity="0.16"/>
<line x1="1344" y1="0" x2="1344" y2="1120" stroke="#27364a" stroke-opacity="0.16"/>
<line x1="1440" y1="0" x2="1440" y2="1120" stroke="#27364a" stroke-opacity="0.16"/>
<line x1="1536" y1="0" x2="1536" y2="1120" stroke="#27364a" stroke-opacity="0.16"/>
<line x1="1632" y1="0" x2="1632" y2="1120" stroke="#27364a" stroke-opacity="0.16"/>
<line x1="1728" y1="0" x2="1728" y2="1120" stroke="#27364a" stroke-opacity="0.16"/>
<line x1="1824" y1="0" x2="1824" y2="1120" stroke="#27364a" stroke-opacity="0.16"/>
<line x1="0" y1="0" x2="1900" y2="0" stroke="#27364a" stroke-opacity="0.16"/>
<line x1="0" y1="96" x2="1900" y2="96" stroke="#27364a" stroke-opacity="0.16"/>
<line x1="0" y1="192" x2="1900" y2="192" stroke="#27364a" stroke-opacity="0.16"/>
<line x1="0" y1="288" x2="1900" y2="288" stroke="#27364a" stroke-opacity="0.16"/>
<line x1="0" y1="384" x2="1900" y2="384" stroke="#27364a" stroke-opacity="0.16"/>
<line x1="0" y1="480" x2="1900" y2="480" stroke="#27364a" stroke-opacity="0.16"/>
<line x1="0" y1="576" x2="1900" y2="576" stroke="#27364a" stroke-opacity="0.16"/>
<line x1="0" y1="672" x2="1900" y2="672" stroke="#27364a" stroke-opacity="0.16"/>
<line x1="0" y1="768" x2="1900" y2="768" stroke="#27364a" stroke-opacity="0.16"/>
<line x1="0" y1="864" x2="1900" y2="864" stroke="#27364a" stroke-opacity="0.16"/>
<line x1="0" y1="960" x2="1900" y2="960" stroke="#27364a" stroke-opacity="0.16"/>
<line x1="0" y1="1056" x2="1900" y2="1056" stroke="#27364a" stroke-opacity="0.16"/>
<text x="70" y="70" fill="#f0f6fc" font-family="Inter, Segoe UI, Arial, sans-serif" font-size="42" font-weight="800" text-anchor="start">Final Trinary Witness Stack</text>
<text x="72" y="112" fill="#a8b9d0" font-family="Inter, Segoe UI, Arial, sans-serif" font-size="20" font-weight="500" text-anchor="start">Output map: raw +1 pressure must pass witness before it becomes final +1</text>
<rect x="80" y="430" width="300" height="175" rx="28" fill="#1d2432" fill-opacity="1" stroke="#79c0ff" stroke-width="3" filter="url(#shadow)"/>
<text x="230" y="477" fill="#79c0ff" font-family="Inter, Segoe UI, Arial, sans-serif" font-size="28" font-weight="900" text-anchor="middle">Raw local +1</text>
<text x="120" y="525.0" fill="#d6e4ff" font-family="Inter, Segoe UI, Arial, sans-serif" font-size="18" font-weight="400" text-anchor="start">passed local zero-gate; not</text>
<text x="120" y="547.5" fill="#d6e4ff" font-family="Inter, Segoe UI, Arial, sans-serif" font-size="18" font-weight="400" text-anchor="start">yet final truth</text>
<line x1="380" y1="518" x2="495" y2="518" stroke="#79c0ff" stroke-width="5" stroke-linecap="round" opacity="1" marker-end="url(#arrowBlue)"/>
<rect x="495" y="205" width="470" height="160" rx="26" fill="#111827" fill-opacity="1" stroke="#ffa657" stroke-width="3" filter="url(#shadow)"/>
<text x="730" y="253" fill="#f0f6fc" font-family="Inter, Segoe UI, Arial, sans-serif" font-size="29" font-weight="900" text-anchor="middle">Truth-role</text>
<text x="730" y="293" fill="#ffa657" font-family="Inter, Segoe UI, Arial, sans-serif" font-size="20" font-weight="900" text-anchor="middle">expresser / latent / trap</text>
<text x="540" y="329.0" fill="#d6e4ff" font-family="Inter, Segoe UI, Arial, sans-serif" font-size="16" font-weight="400" text-anchor="start">Is this candidate expected to earn, hold, or</text>
<text x="540" y="349.0" fill="#d6e4ff" font-family="Inter, Segoe UI, Arial, sans-serif" font-size="16" font-weight="400" text-anchor="start">resist?</text>
<line x1="730" y1="365" x2="730" y2="430" stroke="#d6e4ff" stroke-width="4" stroke-linecap="round" opacity="1" marker-end="url(#arrow)"/>
<rect x="495" y="430" width="470" height="160" rx="26" fill="#111827" fill-opacity="1" stroke="#d2a8ff" stroke-width="3" filter="url(#shadow)"/>
<text x="730" y="478" fill="#f0f6fc" font-family="Inter, Segoe UI, Arial, sans-serif" font-size="29" font-weight="900" text-anchor="middle">Temporal lineage</text>
<text x="730" y="518" fill="#d2a8ff" font-family="Inter, Segoe UI, Arial, sans-serif" font-size="20" font-weight="900" text-anchor="middle">early / witness / late</text>
<text x="540" y="554.0" fill="#d6e4ff" font-family="Inter, Segoe UI, Arial, sans-serif" font-size="16" font-weight="400" text-anchor="start">Did the posture keep its name after time</text>
<text x="540" y="574.0" fill="#d6e4ff" font-family="Inter, Segoe UI, Arial, sans-serif" font-size="16" font-weight="400" text-anchor="start">touched it?</text>
<line x1="730" y1="590" x2="730" y2="655" stroke="#d6e4ff" stroke-width="4" stroke-linecap="round" opacity="1" marker-end="url(#arrow)"/>
<rect x="495" y="655" width="470" height="160" rx="26" fill="#111827" fill-opacity="1" stroke="#7ee787" stroke-width="3" filter="url(#shadow)"/>
<text x="730" y="703" fill="#f0f6fc" font-family="Inter, Segoe UI, Arial, sans-serif" font-size="29" font-weight="900" text-anchor="middle">Echo-independence</text>
<text x="730" y="743" fill="#7ee787" font-family="Inter, Segoe UI, Arial, sans-serif" font-size="20" font-weight="900" text-anchor="middle">relation− / 0 / + weather</text>
<text x="540" y="779.0" fill="#d6e4ff" font-family="Inter, Segoe UI, Arial, sans-serif" font-size="16" font-weight="400" text-anchor="start">Did relation belong to the candidate, or was</text>
<text x="540" y="799.0" fill="#d6e4ff" font-family="Inter, Segoe UI, Arial, sans-serif" font-size="16" font-weight="400" text-anchor="start">it borrowed?</text>
<line x1="965" y1="520" x2="1075" y2="520" stroke="#d6e4ff" stroke-width="5" stroke-linecap="round" opacity="1" marker-end="url(#arrow)"/>
<circle cx="1115" cy="520" r="36" fill="#0e2039" stroke="#d6e4ff" stroke-width="3" filter="url(#shadow)"/>
<text x="1115" y="530" fill="#d6e4ff" font-family="Inter, Segoe UI, Arial, sans-serif" font-size="28" font-weight="900" text-anchor="middle">0</text>
<line x1="1150" y1="520" x2="1260" y2="230" stroke="#7ee787" stroke-width="4" stroke-linecap="round" opacity="1" marker-end="url(#arrowGreen)"/>
<rect x="1260" y="150" width="540" height="160" rx="28" fill="#122b1a" fill-opacity="1" stroke="#7ee787" stroke-width="3" filter="url(#shadow)"/>
<text x="1530" y="205" fill="#7ee787" font-family="Inter, Segoe UI, Arial, sans-serif" font-size="31" font-weight="900" text-anchor="middle">+1 Earned-one</text>
<text x="1310" y="252.0" fill="#d6e4ff" font-family="Inter, Segoe UI, Arial, sans-serif" font-size="18" font-weight="400" text-anchor="start">final expression; real expresser earned the crown</text>
<line x1="1150" y1="520" x2="1260" y2="500" stroke="#79c0ff" stroke-width="4" stroke-linecap="round" opacity="1" marker-end="url(#arrowBlue)"/>
<rect x="1260" y="420" width="540" height="160" rx="28" fill="#0e2039" fill-opacity="1" stroke="#79c0ff" stroke-width="3" filter="url(#shadow)"/>
<text x="1530" y="475" fill="#79c0ff" font-family="Inter, Segoe UI, Arial, sans-serif" font-size="31" font-weight="900" text-anchor="middle">0 Structured zero</text>
<text x="1310" y="522.0" fill="#d6e4ff" font-family="Inter, Segoe UI, Arial, sans-serif" font-size="18" font-weight="400" text-anchor="start">fertile hold · witness hold · quarantine</text>
<text x="1310" y="544.5" fill="#d6e4ff" font-family="Inter, Segoe UI, Arial, sans-serif" font-size="18" font-weight="400" text-anchor="start">latent overcrown · relation debt</text>
<line x1="1150" y1="520" x2="1260" y2="770" stroke="#ff7b72" stroke-width="4" stroke-linecap="round" opacity="1" marker-end="url(#arrowRed)"/>
<rect x="1260" y="690" width="540" height="160" rx="28" fill="#2b1115" fill-opacity="1" stroke="#ff7b72" stroke-width="3" filter="url(#shadow)"/>
<text x="1530" y="745" fill="#ff7b72" font-family="Inter, Segoe UI, Arial, sans-serif" font-size="31" font-weight="900" text-anchor="middle">−1 Containment</text>
<text x="1310" y="792.0" fill="#d6e4ff" font-family="Inter, Segoe UI, Arial, sans-serif" font-size="18" font-weight="400" text-anchor="start">false-one demotion · trap rejection</text>
<text x="1310" y="814.5" fill="#d6e4ff" font-family="Inter, Segoe UI, Arial, sans-serif" font-size="18" font-weight="400" text-anchor="start">collapse held without crown</text>
<rect x="80" y="910" width="1720" height="120" rx="26" fill="#0d1117" fill-opacity="1" stroke="#f2cc60" stroke-width="3" filter="url(#shadow)"/>
<text x="115" y="955" fill="#f2cc60" font-family="Inter, Segoe UI, Arial, sans-serif" font-size="27" font-weight="900" text-anchor="start">F26 lesson / public proof posture</text>
<text x="115" y="994.0" fill="#f0f6fc" font-family="Inter, Segoe UI, Arial, sans-serif" font-size="18" font-weight="400" text-anchor="start">A field echo can pass raw local expression by borrowing relation. Final witness must demote it. First-research-alpha record: 2,388 raw false-one</text>
<text x="115" y="1016.5" fill="#f0f6fc" font-family="Inter, Segoe UI, Arial, sans-serif" font-size="18" font-weight="400" text-anchor="start">pressures demoted; final false-one crowns = 0.</text>
<text x="950.0" y="1088" fill="#8b949e" font-family="Inter, Segoe UI, Arial, sans-serif" font-size="16" font-weight="500" text-anchor="middle">The witness is not mercy. It is the rule that +1 must be earned, not merely loud.</text>
</svg>